<?xml version="1.0" encoding="UTF-8"?>
<svg id="Layer_1" xmlns="http://www.w3.org/2000/svg" version="1.1" viewBox="0 0 268.9 72">
  <!-- Generator: Adobe Illustrator 29.1.0, SVG Export Plug-In . SVG Version: 2.1.0 Build 142)  -->
  <defs>
    <style>
      .st0 {
        fill: #020202;
      }

      .st1 {
        fill: #030303;
      }

      .st2 {
        fill: #040404;
      }
    </style>
  </defs>
  <path class="st2" d="M91.2,32.3c-2.4,2.5-4.7,5-7.2,7.6,4,5,8.1,10.1,12.1,15.2.5.6,1,1.2,1.4,1.9.5.8.3,1.3-.6,1.3-1.8,0-3.6,0-5.4,0-.4,0-.9-.4-1.2-.8-3.3-4.1-6.7-8.2-10-12.3-.1-.2-.3-.4-.2-.3-1.5,1.4-3,2.7-4.4,4.1-.3.3-.4.9-.4,1.3,0,2.6,0,5.2,0,7.9h-6.1V15.1h6.1v25.9c1.8-1.9,3.3-3.5,4.8-5.1,2.8-3,5.5-6.1,8.3-9.1.3-.3.9-.6,1.3-.6,1.9,0,3.8,0,5.7,0,.4,0,.7.2,1.1.3-.2.4-.3.8-.5,1.1-1.5,1.6-3.1,3.1-4.7,4.7Z"/>
  <path class="st1" d="M232.7,25.8c3.3-.5,6.5-.3,9.7.4,4.9,1.2,7.6,4.5,7.6,9.5,0,7.1,0,14.1.1,21.2,0,1-.3,1.4-1.3,1.3-1.5,0-3,0-4.7,0v-4.5c-.3.2-.4.3-.5.4-2.4,3.8-6.2,4.8-10.3,4.7-1.8,0-3.6-.5-5.3-1-2.4-.8-3.9-2.6-4.5-5-.5-2.2-.7-4.4-.4-6.6.6-3.9,3.2-6.3,7.6-6.7,2.9-.3,5.8-.2,8.7-.3,1,0,2-.2,2.9-.4,1.2-.3,1.7-1.2,1.7-2.4,0-2.6-1.4-4.6-4-5-1.7-.3-3.5-.4-5.3-.3-2.9.2-3.6.9-4.7,4.1-1.6,0-3.2,0-4.8,0-.8,0-1-.4-.9-1,.2-3.6,2.3-6.5,5.8-7.6.8-.3,1.7-.4,2.6-.7M237.8,53.3c2.9-.6,4.8-2.3,5.5-5.2.5-1.9.5-3.9.7-5.8-1.6,1.4-3.6,1.4-5.4,1.6-2.2.2-4.4.3-6.6.6-.8.1-1.6.6-2.1,1.2-2.2,2.6-.6,7.1,2.8,7.6,1.6.2,3.3,0,5.1,0Z"/>
  <path class="st0" d="M100.3,51.4c-2.8-6-2.8-12.1-.2-18.1,2.7-6.2,8.6-8.4,15-8,1.3,0,2.7.4,4,.7,4,1.2,6.9,3.8,8.4,7.7,2,5.5,2.2,11.1,0,16.5-2.1,5.2-6.2,8.1-11.8,8.5-2,.2-4,0-6-.3-4.3-.7-7.3-3.2-9.4-7.1M118.1,32.1c-5.7-2.6-11.2-.3-12.9,5.3-.9,3.1-.9,6.4,0,9.5,1.1,3.9,4.1,6.2,8.2,6.3,4.3,0,7.4-1.9,8.7-5.9,1.2-3.6,1-7.2-.2-10.8-.6-1.9-1.8-3.4-3.7-4.4Z"/>
  <path class="st1" d="M155,54.5c-1.8,3.1-4.7,4.2-8,4.3-1.9,0-3.8,0-5.6-.5-4.4-1-7.2-4.6-7.5-9.5-.2-2.5-.2-5.1-.2-7.6,0-4.6,0-9.2,0-13.7,0-.4,0-.8,0-1.3h6.3c0,.4,0,.8,0,1.2,0,5.9,0,11.9,0,17.8,0,.8,0,1.6,0,2.4.3,3.3,2,5.2,5.3,5.7,5.1.8,8.9-2.1,9.5-7.2.3-2.4.2-4.8.2-7.1,0-4.2,0-8.5,0-12.8h6.4v32h-5.9c0-1.2,0-2.3,0-3.5,0-.3,0-.8-.5-.2Z"/>
  <path class="st1" d="M189.5,36.8c-.8-4.1-3.7-6.2-7.7-5.7-5.1.6-7.6,3.2-7.7,8.4-.1,5.8,0,11.6-.1,17.4,0,1.5,0,1.5-1.6,1.6-1.5,0-3,0-4.5,0,0-.4,0-.6,0-.8,0-10.4,0-20.9,0-31.4h6v3.7c1.2-1.7,2.8-2.9,4.7-3.6,4-1.5,8-1.3,11.9.6,3.1,1.6,4.7,4.4,5.1,7.8.2,1.7.3,3.5.3,5.2,0,5.7,0,11.3,0,17,0,1-.4,1.4-1.3,1.4-1.5,0-3.1,0-4.9,0,0-7.3,0-14.4,0-21.6Z"/>
  <path class="st0" d="M47.4,14.9c1.6,0,3.1,0,4.5,0,.4,0,.8.3,1.2.4-.2.4-.2.9-.5,1.1-6.9,6.7-13.8,13.4-20.7,20.1,0,0,0,.1,0,.1,6.5,6.2,12.9,12.4,19.4,18.6.5.5,1.1,1,1.6,1.6.6.6.3,1.3-.5,1.3-4.1,0-8.2,0-12.2-.3-4.2-.4-9.5-5.4-9.4-11,.1-6.4-.2-12.8-.1-19.2,0-6.7,4.4-11.9,10.6-12.8,2-.3,4-.1,6.1-.1Z"/>
  <path class="st0" d="M27,26.6c-3.4,3.4-6.7,6.8-10,10.2.7.7,1.4,1.4,2.1,2.1,3.6,3.6,7.2,7.2,10.8,10.9,1.8,1.9,2.1,4.3.9,6.3-.8,1.4-2,2.1-3.6,2.1-3.1,0-6.3,0-9.4,0-1.5,0-1.8-.2-1.8-1.8,0-7.5,0-15,0-22.6,0-5.8,0-11.6,0-17.4,0-1.5.2-1.7,1.7-1.7,2.8,0,5.7,0,8.5,0,1.9,0,3.7.3,4.6,2.2,1,1.9.8,3.9-.4,5.7-1,1.4-2.2,2.6-3.4,3.9Z"/>
  <path class="st1" d="M205.6,49.3c0-6,0-11.8,0-17.8h-6.2v-5.4h6.3v-9.7h6v9.6h8.2v5.5h-8.1c0,.4,0,.8,0,1.1,0,5.7,0,11.3,0,17,0,2.3,1,3.3,3.3,3.4,1.7,0,3.5,0,5.4,0,0,1.5,0,3.2,0,4.9,0,.2-.5.5-.7.5-2.7,0-5.5,0-8.2-.2-3.5-.4-5.5-2.9-5.8-6.8,0-.6,0-1.3,0-2Z"/>
</svg>